<?xml version="1.0" encoding="UTF-8" standalone="no"?>
<!-- Created with Inkscape (http://www.inkscape.org/) -->

<svg
   xmlns:dc="http://purl.org/dc/elements/1.1/"
   xmlns:cc="http://creativecommons.org/ns#"
   xmlns:rdf="http://www.w3.org/1999/02/22-rdf-syntax-ns#"
   xmlns:svg="http://www.w3.org/2000/svg"
   xmlns="http://www.w3.org/2000/svg"
   xmlns:sodipodi="http://sodipodi.sourceforge.net/DTD/sodipodi-0.dtd"
   xmlns:inkscape="http://www.inkscape.org/namespaces/inkscape"
   width="128"
   height="128"
   viewBox="0 0 33.866666 33.866668"
   version="1.1"
   id="svg8"
   inkscape:version="0.92.2 2405546, 2018-03-11"
   sodipodi:docname="garlicterm-3.svg">
  <defs
     id="defs2" />
  <sodipodi:namedview
     id="base"
     pagecolor="#ffffff"
     bordercolor="#666666"
     borderopacity="1.0"
     inkscape:pageopacity="0.0"
     inkscape:pageshadow="2"
     inkscape:zoom="3.6294983"
     inkscape:cx="64"
     inkscape:cy="64"
     inkscape:document-units="px"
     inkscape:current-layer="layer1"
     showgrid="false"
     inkscape:window-width="1366"
     inkscape:window-height="727"
     inkscape:window-x="0"
     inkscape:window-y="0"
     inkscape:window-maximized="1"
     units="px" />
  <metadata
     id="metadata5">
    <rdf:RDF>
      <cc:Work
         rdf:about="">
        <dc:format>image/svg+xml</dc:format>
        <dc:type
           rdf:resource="http://purl.org/dc/dcmitype/StillImage" />
        <dc:title></dc:title>
      </cc:Work>
    </rdf:RDF>
  </metadata>
  <g
     inkscape:label="Layer 1"
     inkscape:groupmode="layer"
     id="layer1"
     transform="translate(0,-263.13333)">
    <path
       sodipodi:type="inkscape:offset"
       inkscape:radius="1.8585416"
       inkscape:original="M 14.238281 264.98047 C 14.148321 264.97647 14.059112 264.99652 13.972656 265.04492 C 12.700754 265.75686 13.849477 268.12668 15.066406 270.35938 C 14.995496 270.31038 14.92755 270.26003 14.853516 270.21289 L 14.021484 269.68359 L 14.121094 270.66211 C 14.590852 275.26002 12.195518 278.12074 10 279.82031 C 7.3780409 281.84998 5.8922728 283.92489 5.3105469 285.90039 C 4.7288213 287.87589 5.0758498 289.74127 6.0546875 291.23242 C 7.8241648 293.92801 11.557962 295.43488 15.513672 294.87695 C 15.871305 295.05396 16.33604 295.15186 16.818359 295.15234 C 17.256782 295.15154 17.681957 295.07097 18.025391 294.92188 C 20.338354 295.24755 22.818526 294.84324 24.837891 293.84375 C 27.299511 292.62535 29.113731 290.46654 28.804688 287.76562 C 28.427215 284.46652 25.933485 282.16903 23.673828 279.8125 C 21.414171 277.45597 19.374755 275.07768 19.449219 271.60742 L 19.466797 270.81836 L 18.759766 271.16992 C 18.630341 271.23442 18.494823 271.30719 18.357422 271.38672 C 19.831703 268.828 21.63147 265.38298 19.857422 265.05664 C 18.739951 264.85109 18.175656 266.37546 17.835938 268.16992 C 17.832037 268.15812 17.830222 268.14441 17.826172 268.13281 C 17.253869 266.50036 16.601985 267.27478 16.332031 268.08398 C 16.297551 268.18734 16.271437 268.29862 16.248047 268.41602 C 16.010728 267.38241 15.709311 266.45421 15.320312 265.87695 C 15.033933 265.45196 14.628117 264.99764 14.238281 264.98047 z "
       style="fill:#cccccc;fill-opacity:1;fill-rule:evenodd;stroke:none;stroke-width:0.5291667;stroke-linecap:butt;stroke-linejoin:miter;stroke-miterlimit:4;stroke-dasharray:none;stroke-opacity:1"
       id="path4557"
       d="m 14.320312,263.12305 c -0.419764,-0.0187 -0.884804,0.0931 -1.255859,0.30078 -0.805489,0.45087 -1.35302,1.39073 -1.466797,2.16992 -0.113777,0.77919 0.02236,1.43248 0.205078,2.05859 0.123458,0.42305 0.3753,0.80376 0.550782,1.21485 a 1.8587275,1.8587275 0 0 0 -0.181641,1.0039 l 0.09961,0.97852 a 1.8587275,1.8587275 0 0 0 0,0.002 c 0.396907,3.88486 -1.493534,6.01784 -3.4082028,7.5 -2.8380415,2.19694 -4.6115961,4.56363 -5.3359374,7.02344 -0.7278557,2.47175 -0.2838458,4.95984 0.9746093,6.87695 2.2076631,3.36312 6.5225389,5.00889 10.9980469,4.46875 0.435374,0.11794 0.862907,0.29057 1.316406,0.29102 a 1.8587275,1.8587275 0 0 0 0.0059,0 c 0.437098,-8e-4 0.856095,-0.14337 1.279296,-0.25391 2.600588,0.29924 5.275893,-0.11725 7.560547,-1.24804 2.918473,-1.44453 5.403428,-4.32686 4.988282,-7.95508 -0.471484,-4.12075 -3.430219,-6.73024 -5.634766,-9.0293 -2.213387,-2.30828 -3.766615,-4.15369 -3.708984,-6.87695 v -0.002 l 0.01758,-0.7871 a 1.8587275,1.8587275 0 0 0 -0.207031,-0.89649 c 0.335716,-0.67511 0.738436,-1.3021 0.96875,-1.98437 0.251631,-0.74543 0.466917,-1.47234 0.333984,-2.41407 -0.06647,-0.47086 -0.261395,-1.03078 -0.677734,-1.49218 -0.41634,-0.46141 -1.013463,-0.74527 -1.548829,-0.84375 -0.708713,-0.13037 -1.533751,0.0506 -2.099609,0.42382 -0.565858,0.37323 -0.906563,0.84832 -1.162109,1.30664 -0.0063,0.0113 -0.0055,0.0239 -0.01172,0.0352 -0.03061,-0.0485 -0.0262,-0.10818 -0.05859,-0.15625 -0.199028,-0.29536 -0.43936,-0.61469 -0.794922,-0.9375 -0.355562,-0.32281 -0.859604,-0.7383 -1.746094,-0.77734 z" />
    <g
       id="g1244"
       transform="matrix(0.9005015,0,0,0.89971963,1.6848413,28.129074)"
       style="stroke-width:1.11097467">
      <path
         sodipodi:nodetypes="csscc"
         inkscape:connector-curvature="0"
         id="path4557-6"
         d="m 16.873801,273.34302 c 0,0 -1.268482,-4.5142 -0.607407,-6.49748 0.299782,-0.89939 1.022076,-1.75928 1.657613,0.0551 0.680026,1.94124 -1.050206,6.44238 -1.050206,6.44238 z"
         style="fill:#009100;fill-rule:evenodd;stroke:#000000;stroke-width:0.58789086;stroke-linecap:butt;stroke-linejoin:miter;stroke-miterlimit:4;stroke-dasharray:none;stroke-opacity:1" />
      <g
         transform="translate(1.6317914e-6,0.13229383)"
         id="g1217"
         style="stroke-width:1.11097467">
        <path
           style="fill:#009100;fill-rule:evenodd;stroke:#000000;stroke-width:2.22194982;stroke-linecap:butt;stroke-linejoin:miter;stroke-miterlimit:4;stroke-dasharray:none;stroke-opacity:1"
           d="M 51.572266,0.765625 C 42.760392,5.7023412 61.638115,29.621594 63.774993,38.587799 64.934454,34.403898 87.397675,2.8632322 76.269299,0.81437127 65.917375,-1.091536 66.848557,32.337979 64.354416,35.458009 63.277123,27.408888 61.555071,10.68586 57.232422,4.265625 c -1.479353,-2.1972472 -3.724877,-4.58421039 -5.660156,-3.5 z"
           transform="matrix(0.26458334,0,0,0.26458334,0,263.13333)"
           id="path4559"
           inkscape:connector-curvature="0"
           sodipodi:nodetypes="scsccs" />
        <path
           style="color:#000000;font-style:normal;font-variant:normal;font-weight:normal;font-stretch:normal;font-size:medium;line-height:normal;font-family:sans-serif;font-variant-ligatures:normal;font-variant-position:normal;font-variant-caps:normal;font-variant-numeric:normal;font-variant-alternates:normal;font-feature-settings:normal;text-indent:0;text-align:start;text-decoration:none;text-decoration-line:none;text-decoration-style:solid;text-decoration-color:#000000;letter-spacing:normal;word-spacing:normal;text-transform:none;writing-mode:lr-tb;direction:ltr;text-orientation:mixed;dominant-baseline:auto;baseline-shift:baseline;text-anchor:start;white-space:normal;shape-padding:0;clip-rule:nonzero;display:inline;overflow:visible;visibility:visible;opacity:1;isolation:auto;mix-blend-mode:normal;color-interpolation:sRGB;color-interpolation-filters:linearRGB;solid-color:#000000;solid-opacity:1;vector-effect:none;fill:#000000;fill-opacity:1;fill-rule:evenodd;stroke:none;stroke-width:4.44389868;stroke-linecap:round;stroke-linejoin:miter;stroke-miterlimit:4;stroke-dasharray:none;stroke-dashoffset:0;stroke-opacity:1;color-rendering:auto;image-rendering:auto;shape-rendering:auto;text-rendering:auto;enable-background:accumulate"
           d="m 51.783203,20.253906 0.414063,4.111328 c 1.971639,19.314825 -8.080034,31.32727 -17.294922,38.466797 -11.004717,8.526236 -17.245918,17.242383 -19.6875,25.541016 -2.441582,8.298671 -0.979409,16.134433 3.128906,22.398433 7.426738,11.32359 23.096568,17.65624 39.699219,15.3125 1.501037,0.74356 3.452205,1.1562 5.476562,1.15821 1.840123,-0.003 3.624969,-0.34455 5.066407,-0.97071 9.707819,1.36811 20.114292,-0.33256 28.589843,-4.53125 C 107.50753,116.622 115.12521,107.55884 113.82812,96.212891 112.24381,82.354116 101.77315,72.702 92.289062,62.802734 82.804973,52.903471 74.244104,42.915717 74.556641,28.337891 l 0.07422,-3.314453 -2.966797,1.474609 c -2.315776,1.154646 -5.032638,2.82513 -7.324218,5.515625 -2.080861,-3.69241 -5.01201,-6.947601 -9.072266,-9.53711 z m 4.201172,7.957032 c 7.217063,6.761811 4.79071,20.276711 2.933594,27.482421 4.046698,-5.100559 6.752676,-21.330875 12.044922,-24.300781 0.924706,14.419427 9.516937,24.874752 18.43164,34.179688 9.584001,10.00354 19.084329,19.040686 20.462889,31.099609 C 111.01487,111.63709 95.602208,115.94713 85.167969,118.30078 108.16258,106.71871 106.63873,87.326922 80.890625,62.339844 102.66511,88.875714 106.39332,105.61498 80,115.28125 97.346907,99.22789 84.117672,75.170578 67.976562,57.050781 c 13.761923,19.72953 30.925774,49.446689 -1.841796,61.468749 -0.842295,-0.15671 -1.725627,-0.23719 -2.615235,-0.23828 -0.693771,0.002 -1.384204,0.0528 -2.054687,0.15039 C 28.226528,107.01915 48.114387,82.592225 56.5625,61.458984 46.072007,80.377159 30.956226,100.025 46.716797,114.80859 21.45904,105.71345 22.674984,91.334301 43.949219,66.453125 18.556802,91.981574 19.083224,108.62309 43.644531,119.07031 34.267465,118.12942 26.661626,116.05552 21.6875,108.57812 18.163568,103.20515 16.911722,96.754401 19.044922,89.503906 c 2.1332,-7.250456 7.767662,-15.346314 18.30664,-23.511718 9.11437,-7.061635 18.856077,-19.466189 18.632813,-37.78125 z"
           id="path4551"
           inkscape:connector-curvature="0"
           sodipodi:nodetypes="ccccccccscscccccccccsccccccccccccccsc"
           transform="matrix(0.26458334,0,0,0.26458334,0,263.13333)" />
      </g>
    </g>
  </g>
</svg>
